<svg xmlns="http://www.w3.org/2000/svg" version="1.1" xmlns:xlink="http://www.w3.org/1999/xlink" xmlns:svgjs="http://svgjs.dev/svgjs" viewBox="0 0 800 800" opacity="1"><defs><linearGradient x1="50%" y1="0%" x2="50%" y2="100%" id="rrreflection-grad"><stop stop-color="#e0aaff" stop-opacity="1" offset="45%"></stop><stop stop-color="#3c096c" stop-opacity="1" offset="100%"></stop></linearGradient><linearGradient x1="50%" y1="0%" x2="50%" y2="100%" id="rrreflection-grad-2"><stop stop-color="#3c096c" stop-opacity="1" offset="0%"></stop><stop stop-color="#e0aaff" stop-opacity="1" offset="45%"></stop></linearGradient><linearGradient gradientTransform="rotate(270)" x1="50%" y1="0%" x2="50%" y2="100%" id="rrreflection-grad-3"><stop stop-color="#e0aaff" stop-opacity="1" offset="45%"></stop><stop stop-color="#3c096c" stop-opacity="1" offset="100%"></stop></linearGradient><linearGradient gradientTransform="rotate(270)" x1="50%" y1="0%" x2="50%" y2="100%" id="rrreflection-grad-4"><stop stop-color="#3c096c" stop-opacity="1" offset="0%"></stop><stop stop-color="#e0aaff" stop-opacity="1" offset="45%"></stop></linearGradient></defs><g stroke-width="3" stroke="url(#rrreflection-grad)" fill="none"><circle r="560" cx="50%" cy="0"></circle><circle r="532" cx="50%" cy="0"></circle><circle r="504" cx="50%" cy="0"></circle><circle r="476" cx="50%" cy="0"></circle><circle r="448" cx="50%" cy="0"></circle><circle r="420" cx="50%" cy="0"></circle><circle r="392" cx="50%" cy="0"></circle><circle r="364" cx="50%" cy="0"></circle><circle r="336" cx="50%" cy="0"></circle><circle r="308" cx="50%" cy="0"></circle><circle r="280" cx="50%" cy="0"></circle><circle r="252" cx="50%" cy="0"></circle><circle r="224" cx="50%" cy="0"></circle><circle r="196" cx="50%" cy="0"></circle><circle r="168" cx="50%" cy="0"></circle><circle r="140" cx="50%" cy="0"></circle><circle r="112" cx="50%" cy="0"></circle><circle r="84" cx="50%" cy="0"></circle><circle r="56" cx="50%" cy="0"></circle><circle r="28" cx="50%" cy="0"></circle></g><g stroke-width="3" stroke="url(#rrreflection-grad-2)" fill="none"><circle r="560" cx="50%" cy="100%"></circle><circle r="532" cx="50%" cy="100%"></circle><circle r="504" cx="50%" cy="100%"></circle><circle r="476" cx="50%" cy="100%"></circle><circle r="448" cx="50%" cy="100%"></circle><circle r="420" cx="50%" cy="100%"></circle><circle r="392" cx="50%" cy="100%"></circle><circle r="364" cx="50%" cy="100%"></circle><circle r="336" cx="50%" cy="100%"></circle><circle r="308" cx="50%" cy="100%"></circle><circle r="280" cx="50%" cy="100%"></circle><circle r="252" cx="50%" cy="100%"></circle><circle r="224" cx="50%" cy="100%"></circle><circle r="196" cx="50%" cy="100%"></circle><circle r="168" cx="50%" cy="100%"></circle><circle r="140" cx="50%" cy="100%"></circle><circle r="112" cx="50%" cy="100%"></circle><circle r="84" cx="50%" cy="100%"></circle><circle r="56" cx="50%" cy="100%"></circle><circle r="28" cx="50%" cy="100%"></circle></g><g stroke-width="3" stroke="url(#rrreflection-grad-3)" fill="none"><circle r="560" cx="0" cy="50%"></circle><circle r="532" cx="0" cy="50%"></circle><circle r="504" cx="0" cy="50%"></circle><circle r="476" cx="0" cy="50%"></circle><circle r="448" cx="0" cy="50%"></circle><circle r="420" cx="0" cy="50%"></circle><circle r="392" cx="0" cy="50%"></circle><circle r="364" cx="0" cy="50%"></circle><circle r="336" cx="0" cy="50%"></circle><circle r="308" cx="0" cy="50%"></circle><circle r="280" cx="0" cy="50%"></circle><circle r="252" cx="0" cy="50%"></circle><circle r="224" cx="0" cy="50%"></circle><circle r="196" cx="0" cy="50%"></circle><circle r="168" cx="0" cy="50%"></circle><circle r="140" cx="0" cy="50%"></circle><circle r="112" cx="0" cy="50%"></circle><circle r="84" cx="0" cy="50%"></circle><circle r="56" cx="0" cy="50%"></circle><circle r="28" cx="0" cy="50%"></circle></g><g stroke-width="3" stroke="url(#rrreflection-grad-4)" fill="none"><circle r="560" cx="100%" cy="50%"></circle><circle r="532" cx="100%" cy="50%"></circle><circle r="504" cx="100%" cy="50%"></circle><circle r="476" cx="100%" cy="50%"></circle><circle r="448" cx="100%" cy="50%"></circle><circle r="420" cx="100%" cy="50%"></circle><circle r="392" cx="100%" cy="50%"></circle><circle r="364" cx="100%" cy="50%"></circle><circle r="336" cx="100%" cy="50%"></circle><circle r="308" cx="100%" cy="50%"></circle><circle r="280" cx="100%" cy="50%"></circle><circle r="252" cx="100%" cy="50%"></circle><circle r="224" cx="100%" cy="50%"></circle><circle r="196" cx="100%" cy="50%"></circle><circle r="168" cx="100%" cy="50%"></circle><circle r="140" cx="100%" cy="50%"></circle><circle r="112" cx="100%" cy="50%"></circle><circle r="84" cx="100%" cy="50%"></circle><circle r="56" cx="100%" cy="50%"></circle><circle r="28" cx="100%" cy="50%"></circle></g></svg>